<svg xmlns="http://www.w3.org/2000/svg" width="512" height="512" viewBox="0 0 512 512" role="img" aria-label="PP">
  <defs>
    <linearGradient id="g" x1="0" y1="0" x2="1" y2="1">
      <stop offset="0" stop-color="#9333EA"/>
      <stop offset="1" stop-color="#2563EB"/>
    </linearGradient>
    <filter id="soft" x="-20%" y="-20%" width="140%" height="140%">
      <feGaussianBlur in="SourceGraphic" stdDeviation="10" result="b"/>
      <feColorMatrix in="b" type="matrix" values="1 0 0 0 0  0 1 0 0 0  0 0 1 0 0  0 0 0 0.35 0"/>
      <feMerge>
        <feMergeNode/>
        <feMergeNode in="SourceGraphic"/>
      </feMerge>
    </filter>
  </defs>

  <rect x="48" y="48" width="416" height="416" rx="96" fill="#0B0B0F"/>
  <rect x="48" y="48" width="416" height="416" rx="96" fill="url(#g)" opacity="0.14"/>

  <path d="M140 164h120c52 0 84 28 84 74 0 46-32 74-84 74h-44v80h-76V164zm76 60v68h36c18 0 28-12 28-34s-10-34-28-34h-36z" fill="#FFFFFF" filter="url(#soft)"/>
  <path d="M300 164h72v228h-72V164z" fill="#FFFFFF" opacity="0.92"/>
</svg>
